PathFileType	4	(X/Y/Z)	C:/Users/beibeiliu/ov580/test_trc/capture2\sequence.13_training_dense_left.trc
DataRate	CameraRate	NumFrames	NumMarkers	Units	OrigDataRate	OrigDataStartFrame	OrigNumFrames
120	120	16	19	mm	120	47	369
Frame#	Time	ThumbCMC			ThumbMCP			ThumbIP			ThumbTip			IndexMCP			IndexPIP			IndexTip			MiddleMCP			MiddlePIP			MiddleTip			RingMCP			RingPIP			RingTip			PinkyMCP			PinkyPIP			PinkyTip			BackHand1			BackHand2			BackHand3	
		X0	Y0	Z0	X1	Y1	Z1	X2	Y2	Z2	X3	Y3	Z3	X4	Y4	Z4	X5	Y5	Z5	X6	Y6	Z6	X7	Y7	Z7	X8	Y8	Z8	X9	Y9	Z9	X10	Y10	Z10	X11	Y11	Z11	X12	Y12	Z12	X13	Y13	Z13	X14	Y14	Z14	X15	Y15	Z15	X16	Y16	Z16	X17	Y17	Z17	X18	Y18	Z18	
46	0.383333	-151.264	83.9746	-21.7462	-133.178	102.955	-41.2465	-120.12	104.741	-63.8771	-103.126	96.8643	-83.311	-136.666	56.2351	-84.8724	-116.043	66.899	-103.995	-90.642	87.4782	-97.022	-123.023	39.2275	-85.8794	-99.1598	51.6053	-107.117	-77.4864	73.6663	-106.486	-106.033	23.9757	-71.5503	-90.2568	34.6114	-95.6649	-67.8807	57.0868	-101.553	-94.3709	18.2989	-57.9594	-81.5354	21.5851	-75.6593	-64.5526	37.9233	-92.6462	-130.808	24.3616	-24.868	-138.65	28.2328	5.66176	-157.645	46.5743	-20.4924	
47	0.391667	-150.634	83.9185	-20.1758	-130.651	97.1245	-40.554	-120.05	105.865	-67.8056	-105.134	101.631	-85.1596	-134.387	54.9982	-87.6458	-117.698	67.5893	-104.03	-93.3361	90.2133	-100.247	-121.564	37.0182	-82.3847	-97.9798	47.6421	-104.971	-77.9324	75.3053	-107.083	-104.119	24.4756	-75.4349	-88.8908	34.895	-95.1489	-67.5965	59.5034	-102.125	-94.8086	20.1193	-55.2479	-77.2415	23.206	-77.2285	-62.5706	41.6217	-94.6331	-127.554	24.396	-21.2103	-138.76	26.7169	1.8944	-157.338	43.7096	-20.5119	
48	0.4	-150.397	81.4778	-16.9724	-130.999	96.6467	-39.2826	-121.002	105.65	-67.0202	-104.086	96.4695	-84.4059	-135.134	53.083	-86.0113	-114.181	65.41	-104.385	-92.3096	87.5859	-99.889	-119.158	35.7301	-82.332	-99.9253	50.7048	-106.666	-78.8257	78.2026	-106.952	-106.857	26.9591	-72.7663	-83.71	34.5378	-95.494	-70.5183	64.3351	-102.238	-90.9218	17.5216	-57.9096	-76.3828	24.6555	-80.4265	-63.1602	39.5078	-94.4987	-126.111	21.1899	-21.1887	-134.63	25.239	1.63875	-153.282	39.966	-17.9287	
49	0.408333	-150.602	82.5093	-21.1009	-132.047	95.4121	-39.5316	-121.347	102.237	-65.0393	-106.057	97.9671	-86.2124	-133.423	52.1823	-87.3357	-114.257	67.6163	-104.903	-94.9823	88.4299	-100.529	-119.75	35.6242	-84.6316	-98.8681	48.452	-105.019	-74.5846	76.1914	-104.797	-104.41	24.2158	-74.2738	-85.7283	36.8501	-96.7811	-67.7733	61.2384	-101.78	-94.8569	21.0927	-53.7505	-79.5139	24.663	-78.4998	-59.7999	40.8989	-96.6702	-126.339	20.0552	-24.714	-135.449	27.026	2.80655	-153.623	40.5382	-19.7364	
50	0.416667	-150.599	81.1928	-15.8888	-132.726	96.0257	-41.1673	-121.495	101.541	-64.1124	-108.019	100.656	-86.5814	-136.696	52.778	-83.3531	-112.333	64.0208	-104.225	-95.9776	87.0873	-102.186	-118.906	35.3115	-83.4356	-98.6209	47.8838	-105.728	-77.428	72.8997	-106.07	-105.588	25.0529	-72.6714	-83.169	36.3831	-96.3352	-68.1631	64.7266	-101.61	-90.7874	19.6286	-57.7164	-74.9841	22.8478	-77.5211	-63.4167	40.258	-96.1252	-125.49	20.5203	-22.231	-132.771	22.6432	3.16992	-152.784	38.5871	-19.6373	
51	0.425	-150.233	81.1372	-15.6074	-134.041	98.9579	-39.8853	-121.558	100.73	-63.8943	-107.148	98.0217	-88.6157	-133.875	50.6083	-84.6338	-114.252	64.2843	-104.049	-93.1202	88.4085	-99.8543	-119.564	35.5738	-83.2933	-103.338	47.2366	-106.064	-76.1826	77.4058	-105.617	-106.313	26.4591	-74.5702	-86.865	37.8462	-97.4097	-68.5658	61.2852	-100.906	-89.4119	18.5806	-54.3932	-75.1994	26.2224	-80.6727	-65.2843	45.623	-95.5437	-124.965	21.6852	-24.3108	-129.95	22.9745	4.7756	-154.189	39.0467	-20.7006	
52	0.433333	-148.097	76.3054	-17.5984	-133.65	94.4335	-37.6533	-122.761	100.714	-70.2164	-108.144	96.4698	-87.6615	-132.57	48.3339	-82.5979	-113.482	61.5174	-103.084	-93.0586	86.5929	-98.3468	-116.763	33.4879	-86.5539	-102.346	47.2451	-106.684	-82.0834	77.6222	-107.116	-102.354	24.1703	-71.6287	-87.1291	37.2021	-96.8359	-69.0536	63.7721	-101.403	-88.9083	18.8938	-56.2943	-75.0857	27.1071	-81.403	-60.3287	47.7656	-97.9345	-123.316	21.9658	-25.5737	-130.139	20.9724	6.93638	-152.962	38.2082	-22.429	
53	0.441667	-149.877	78.4343	-15.7745	-134.244	94.3866	-43.3178	-124.025	101.074	-69.4334	-109.914	96.1432	-85.8214	-133.956	48.3436	-82.5106	-114.724	63.1919	-104.062	-97.2701	85.6193	-101.592	-120.222	36.1461	-87.382	-99.6862	49.883	-107.72	-80.2485	77.2968	-105.982	-106.193	26.6847	-75.7177	-86.6985	36.2418	-95.7059	-73.2719	62.1932	-103.012	-92.2897	20.2488	-56.9543	-78.1724	27.0622	-81.7523	-64.3837	46.1251	-97.5157	-122.853	18.4204	-20.9308	-130.755	21.6852	4.37134	-153.686	38.3707	-22.7084	
54	0.45	-149.616	77.697	-20.3959	-133.931	93.515	-40.4596	-124.187	100.487	-67.9864	-110.012	95.9769	-85.5339	-133.773	48.5936	-83.5932	-113.292	65.1183	-105.528	-96.7182	85.9564	-101.54	-117.491	33.1192	-84.1871	-99.8663	50.7832	-107.022	-81.1681	78.892	-106.357	-102.904	24.4862	-72.905	-83.5468	37.0635	-96.7252	-73.116	63.3575	-101.983	-91.061	19.648	-59.4006	-77.5089	26.6688	-81.4499	-66.0298	48.4025	-95.8919	-122.973	18.6589	-23.4125	-128.553	23.1088	6.12666	-152.52	40.1192	-20.9463	
55	0.458333	-147.393	77.4333	-18.327	-132.452	95.1271	-43.0826	-121.52	98.3834	-66.0165	-109.127	98.8191	-89.1046	-134.599	48.6351	-81.7818	-114.684	63.4237	-103.616	-95.3033	86.4217	-100.611	-120.922	35.0081	-84.9719	-101.991	50.2918	-108.339	-80.6669	73.9372	-105.959	-107.97	25.9088	-72.648	-85.1805	38.0283	-98.7154	-72.7143	62.8628	-102.427	-92.0158	18.0828	-57.8057	-80.8177	24.5793	-80.5755	-63.1167	49.2074	-96.5815	-125.912	22.1474	-23.8296	-132.983	24.5013	2.39527	-154.307	38.8885	-18.1982	
56	0.466667	-148.145	79.8411	-20.5347	-132.037	97.4367	-42.7265	-121.448	102.763	-67.8775	-108.307	100.274	-86.9059	-136.675	51.6105	-85.4375	-118.032	65.5255	-105.102	-97.9084	86.3967	-102.871	-121.937	35.6752	-87.3959	-100.291	50.4552	-107.432	-78.4212	76.4928	-103.514	-108.912	25.9663	-73.1247	-86.8525	37.6417	-98.4297	-74.1475	65.2609	-102.55	-96.7936	19.8043	-55.8891	-83.5463	22.4232	-80.5113	-65.3781	44.7546	-97.1957	-124.839	18.7334	-27.4907	-133.632	22.2757	5.17275	-154.389	42.8647	-22.7609	
57	0.475	-146.843	82.0184	-16.2056	-130.06	97.253	-39.2355	-116.703	99.6631	-66.3893	-104.509	96.6436	-84.4274	-136.545	55.587	-87.3937	-115.652	66.2277	-104.443	-95.2739	88.3335	-100.799	-123.619	36.4608	-87.0269	-104.754	47.7485	-106.731	-79.4175	77.4265	-103.329	-110.801	26.9001	-78.707	-92.2759	37.599	-99.985	-76.0215	61.03	-102.672	-98.6663	18.4389	-57.7238	-82.7364	21.9493	-84.0367	-67.6869	40.2246	-99.5727	-127.001	22.6513	-25.0981	-138.756	27.0592	1.66067	-155.748	44.1822	-20.2186	
58	0.483333	-146.015	89.8087	-15.6079	-125.065	99.9212	-38.635	-114.778	105.003	-62.4596	-101.288	98.1298	-85.4168	-139.667	59.5228	-84.0705	-118.494	68.1487	-104.241	-91.4685	89.5765	-99.346	-128.088	40.431	-84.6303	-104.792	53.4459	-108.372	-80.4629	77.1944	-105.018	-116.26	28.3107	-75.7533	-94.9735	37.8581	-99.7564	-77.7826	59.6842	-102.974	-104.217	18.1231	-59.7049	-92.1179	21.7638	-84.2883	-72.7559	41.0773	-101.22	-134.848	27.8588	-29.4216	-140.29	29.4461	2.91983	-157.299	48.9706	-21.457	
59	0.491667	-141.728	95.2811	-12.5113	-119.535	103.223	-36.5377	-108.697	106.635	-60.8405	-96.7824	97.2461	-82.8209	-140.971	68.7128	-87.3911	-118.804	78.8508	-105.611	-93.5	88.0067	-99.8985	-131.67	45.6115	-87.8024	-112.322	55.0896	-108.386	-81.3397	72.7708	-104.457	-121.552	32.2475	-79.7719	-101.505	42.3748	-101.668	-76.0738	62.6229	-103.157	-110.66	22.0521	-59.7722	-95.0861	25.3536	-88.4216	-79.2607	40.5411	-100.115	-137.998	28.6439	-24.5843	-144.477	31.3045	1.96421	-161.205	59.4054	-20.7892	
60	0.5	-137.131	99.5093	-10.3982	-114.818	104.916	-33.851	-102.479	109.394	-62.8109	-94.863	99.9164	-81.4014	-142.772	75.8448	-80.3552	-120.383	80.0654	-103.08	-87.7527	90.8983	-97.5947	-138.372	56.7267	-87.4232	-116.384	59.2798	-107.788	-82.8313	78.6152	-107.329	-128.314	38.0775	-79.8218	-105.974	42.9883	-102.372	-83.0046	61.4283	-104.73	-118.623	27.3616	-63.8285	-103.417	27.1763	-88.547	-83.2761	39.8782	-104.425	-144.153	36.9049	-30.4767	-148.941	39.1207	2.67657	-157.836	63.3439	-18.663	
61	0.508333	-130.623	103.928	-9.49708	-107.334	109.187	-32.0253	-96.0589	112.992	-57.0493	-88.6601	105.911	-82.5752	-141.578	83.2563	-79.1664	-118.372	86.8622	-102.216	-88.2833	95.3635	-99.2059	-139.561	65.2067	-88.327	-115.391	66.7109	-108.978	-83.2177	78.322	-107.347	-132.834	43.4957	-79.394	-113.101	49.8015	-103.961	-82.3739	61.201	-105.135	-125.726	28.9094	-68.1492	-111.15	33.3174	-92.4772	-90.1091	46.3485	-104.22	-147.696	42.4951	-31.3265	-151.088	44.6764	-1.12925	-161.076	76.6171	-15.8656	
